#!OML:ASF I:\Actors\actors\Patient Classification 2\Patient 1\Session 1\actor1.ASF
:FULLY-SPECIFIED
:DEGREES
296
root -2.64006 18.2485 5.76947 5.81799 54.7328 -10.7014
lowerback 13.8925 8.32661 -2.68297
upperback 1.23353 10.3381 -5.15539
thorax -5.87981 5.10726 -5.89318
lowerneck 0.0591023 -21.2261 -17.9701
upperneck -0.523197 -29.3827 20.9165
head 5.5852 -14.5045 6.21825
rclavicle 5.48646e-014 -3.02153e-014
rhumerus 13.1434 -30.5051 -39.5526
rradius 36.3306
rwrist -34.0016
rhand -8.66118 -59.756
rfingers 7.12502
rthumb 17.2726 -89.0084
lclavicle 5.48646e-014 -3.02153e-014
lhumerus -70.1862 -6.46416 75.7759
lradius 70.3605
lwrist 15.1953
lhand -11.7829 -28.7644
lfingers 7.12502
lthumb 14.2662 0.725619
rfemur -8.51881 -49.2388 41.6368
rtibia 1.11319e-014
rfoot -18.6944 -6.9896
rtoes 13.7634
lfemur -15.2742 -31.3508 8.53541
ltibia -25.697
lfoot 19.8878 5.7762
ltoes -10.5908
297
root -2.65207 18.2508 5.75476 5.86717 54.8058 -10.7385
lowerback 13.9754 8.28355 -2.60723
upperback 1.28553 10.2922 -5.10974
thorax -5.868 5.08346 -5.88488
lowerneck 0.00903142 -21.2188 -18.008
upperneck -0.506376 -29.3781 21.0251
head 5.62253 -14.4976 6.24418
rclavicle -3.97569e-014 -1.82882e-014
rhumerus 13.2514 -30.2748 -39.958
rradius 36.3051
rwrist -33.8903
rhand -8.5834 -59.7181
rfingers 7.12502
rthumb 17.3474 -88.9639
lclavicle -3.97569e-014 -1.82882e-014
lhumerus -69.9549 -6.407 76.0347
lradius 70.5489
lwrist 15.2675
lhand -11.783 -28.8028
lfingers 7.12502
lthumb 14.2661 0.687171
rfemur -8.77784 -49.2717 41.843
rtibia -3.18055e-015
rfoot -18.6309 -7.02667
rtoes 13.677
lfemur -15.4957 -31.3525 8.65186
ltibia -25.702
lfoot 20.0465 5.85003
ltoes -10.4626
298
root -2.66399 18.2529 5.74216 5.92256 54.8726 -10.8054
lowerback 14.0059 8.24105 -2.49731
upperback 1.33947 10.255 -5.09069
thorax -5.814 5.06473 -5.9146
lowerneck -0.00746556 -21.1872 -18.0021
upperneck -0.615627 -29.3373 21.2354
head 5.62151 -14.4779 6.30991
rclavicle -6.2816e-014 9.62118e-014
rhumerus 13.2834 -30.3464 -40.7351
rradius 36.4892
rwrist -33.7357
rhand -8.89233 -59.6117
rfingers 7.12502
rthumb 17.0501 -88.8835
lclavicle -6.2816e-014 9.62118e-014
lhumerus -69.6686 -6.38147 76.2389
lradius 70.7175
lwrist 15.3075
lhand -11.7862 -28.885
lfingers 7.12502
lthumb 14.263 0.605208
rfemur -9.06412 -49.2852 42.0991
rtibia -4.92986e-014
rfoot -18.6027 -7.00989
rtoes 13.7508
lfemur -15.732 -31.2954 8.78669
ltibia -25.7122
lfoot 20.2634 5.90952
ltoes -10.2098
299
root -2.67468 18.2554 5.72961 5.97907 54.9161 -10.8444
lowerback 14.0552 8.23019 -2.40922
upperback 1.39571 10.2552 -5.0676
thorax -5.76961 5.06456 -5.9383
lowerneck -0.0315849 -21.1866 -17.9301
upperneck -0.705409 -29.3257 21.3051
head 5.598 -14.4735 6.32512
rclavicle 3.93594e-014 1.82882e-014
rhumerus 13.316 -30.5152 -41.5165
rradius 36.643
rwrist -33.7013
rhand -9.56012 -59.5261
rfingers 7.12502
rthumb 16.4072 -88.8522
lclavicle 3.93594e-014 1.82882e-014
lhumerus -69.3486 -6.35516 76.4605
lradius 70.8504
lwrist 15.3314
lhand -11.9214 -28.9133
lfingers 7.12502
lthumb 14.1327 0.586049
rfemur -9.30431 -49.2868 42.2927
rtibia -1.43125e-014
rfoot -18.5949 -6.96159
rtoes 14.0991
lfemur -15.965 -31.3402 8.95844
ltibia -25.7064
lfoot 20.4149 6.1988
ltoes -9.46654
300
root -2.68494 18.2578 5.71517 6.02081 54.9526 -10.8858
lowerback 14.1346 8.22541 -2.32233
upperback 1.4443 10.2614 -5.03232
thorax -5.75193 5.06642 -5.95582
lowerneck -0.11776 -21.212 -17.8211
upperneck -0.680061 -29.3409 21.206
head 5.58862 -14.4768 6.27552
rclavicle -7.7526e-014 3.18055e-014
rhumerus 13.5256 -30.9324 -42.3617
rradius 36.57
rwrist -33.0626
rhand -9.40521 -59.4881
rfingers 7.12502
rthumb 16.5563 -88.8018
lclavicle -7.7526e-014 3.18055e-014
lhumerus -69.0445 -6.26072 76.6511
lradius 70.9485
lwrist 15.3196
lhand -12.0217 -28.9555
lfingers 7.12502
lthumb 14.0361 0.550603
rfemur -9.5348 -49.2862 42.47
rtibia -1.59028e-015
rfoot -18.5695 -6.93455
rtoes 14.4355
lfemur -16.1623 -31.2811 9.05286
ltibia -25.6935
lfoot 20.5724 6.31343
ltoes -9.1935
301
root -2.69419 18.2592 5.69952 6.08764 54.9964 -10.9093
lowerback 14.1977 8.22114 -2.24528
upperback 1.4914 10.2685 -4.97861
thorax -5.7321 5.06888 -5.94636
lowerneck -0.193551 -21.2541 -17.7142
upperneck -0.648622 -29.3738 21.0381
head 5.57042 -14.4901 6.20537
rclavicle 3.89618e-014 -2.38542e-015
rhumerus 13.9578 -31.7834 -43.4756
rradius 36.3377
rwrist -31.6293
rhand -8.51386 -59.4802
rfingers 7.12502
rthumb 17.4144 -88.7201
lclavicle 3.89618e-014 -2.38542e-015
lhumerus -68.7746 -6.13752 76.8514
lradius 71.0444
lwrist 15.3094
lhand -12.0575 -28.9854
lfingers 7.12502
lthumb 14.0016 0.523065
rfemur -9.78524 -49.2889 42.6501
rtibia 2.70347e-014
rfoot -18.5215 -6.92745
rtoes 14.6523
lfemur -16.3586 -31.1488 9.09402
ltibia -25.6877
lfoot 20.7656 6.27413
ltoes -9.25013
302
root -2.70294 18.2614 5.68516 6.23862 55.03 -10.8322
lowerback 14.2554 8.23839 -2.25215
upperback 1.53505 10.2912 -4.91535
thorax -5.72832 5.08006 -5.88518
lowerneck -0.241208 -21.3068 -17.6823
upperneck -0.608363 -29.4271 20.8771
head 5.56591 -14.5142 6.14216
rclavicle -4.77083e-014 -3.33958e-014
rhumerus 14.5741 -32.4988 -44.3839
rradius 35.9195
rwrist -30.4928
rhand -7.943 -59.4442
rfingers 7.12502
rthumb 17.9637 -88.6346
lclavicle -4.77083e-014 -3.33958e-014
lhumerus -68.5769 -6.07285 77.1088
lradius 71.1795
lwrist 15.387
lhand -12.079 -29.0421
lfingers 7.12502
lthumb 13.9809 0.467766
rfemur -10.0263 -49.2874 42.7657
rtibia 6.36111e-015
rfoot -18.4769 -6.91815
rtoes 14.951
lfemur -16.555 -31.0738 9.117
ltibia -25.6859
lfoot 20.9672 6.38932
ltoes -9.00254
303
root -2.71269 18.2646 5.67073 6.36734 55.0442 -10.782
lowerback 14.3494 8.25254 -2.24299
upperback 1.55495 10.3087 -4.85457
thorax -5.7668 5.08682 -5.84323
lowerneck -0.232818 -21.3178 -17.849
upperneck -0.563887 -29.4521 20.9224
head 5.61457 -14.5244 6.16178
rclavicle -1.23644e-013 -7.95139e-015
rhumerus 15.0983 -32.5272 -44.6883
rradius 35.413
rwrist -30.2133
rhand -7.60843 -59.3665
rfingers 7.12502
rthumb 18.2856 -88.5271
lclavicle -1.23644e-013 -7.95139e-015
lhumerus -68.4268 -5.9834 77.3339
lradius 71.2921
lwrist 15.4833
lhand -12.082 -29.111
lfingers 7.12502
lthumb 13.978 0.399083
rfemur -10.269 -49.2655 42.8983
rtibia -7.95139e-015
rfoot -18.4324 -6.9254
rtoes 15.1467
lfemur -16.7037 -30.9115 9.11091
ltibia -25.6825
lfoot 21.2439 6.48971
ltoes -8.7544
304
root -2.72224 18.2673 5.65471 6.40794 55.0408 -10.8316
lowerback 14.4598 8.24839 -2.14845
upperback 1.56132 10.3134 -4.81258
thorax -5.8111 5.08543 -5.86785
lowerneck -0.125238 -21.2668 -18.0753
upperneck -0.620007 -29.4136 21.1828
head 5.65317 -14.5104 6.27185
rclavicle -9.78021e-014 5.64548e-014
rhumerus 15.289 -32.3436 -44.9256
rradius 35.1799
rwrist -30.0412
rhand -7.10143 -59.3087
rfingers 7.12502
rthumb 18.7733 -88.4228
lclavicle -9.78021e-014 5.64548e-014
lhumerus -68.2301 -5.82528 77.4673
lradius 71.3268
lwrist 15.4557
lhand -12.1488 -29.0473
lfingers 7.12502
lthumb 13.9136 0.467259
rfemur -10.5023 -49.223 43.0791
rtibia -2.70347e-014
rfoot -18.38 -6.96707
rtoes 15.1212
lfemur -16.8397 -30.7348 9.15863
ltibia -25.6817
lfoot 21.4892 6.54957
ltoes -8.49497
